<svg xmlns="http://www.w3.org/2000/svg" xmlns:xlink="http://www.w3.org/1999/xlink" viewBox="0 0 32.03 32"><defs><style>.cls-1{fill:#fff;}.cls-2{fill:url(#linear-gradient);}</style><linearGradient id="linear-gradient" x1="-39.31" y1="18" x2="40.94" y2="18" gradientTransform="matrix(1, 0, 0, -1, 0, 34)" gradientUnits="userSpaceOnUse"><stop offset="0" stop-color="#283136"/><stop offset="0.07" stop-color="#283136"/><stop offset="0.6" stop-color="#029ff5"/><stop offset="1" stop-color="#00d8ff"/></linearGradient></defs><title>zomi-coin-2-32x32px_1</title><g id="Layer_2" data-name="Layer 2"><g id="Layer_1-2" data-name="Layer 1"><circle class="cls-1" cx="16.02" cy="16.01" r="15.69"/><path class="cls-2" d="M16,3.13a12.88,12.88,0,0,0,0,25.76A12.88,12.88,0,0,0,16,3.13ZM26.14,17.94q-5.76,4.15-11.55,8.25a1.35,1.35,0,0,1-1.67,0,1.61,1.61,0,0,1-.66-1.78c.5-1.91,1-3.82,1.54-5.73l2.1-7.75L16,10.7l-4.82,3.44c-1.1.78-2.2,1.56-3.29,2.35a1.63,1.63,0,0,1-1,.36,1.42,1.42,0,0,1-.74-.22A1.59,1.59,0,0,1,5.35,15,1.39,1.39,0,0,1,6,14l9.21-6.57,2.22-1.58a1.36,1.36,0,0,1,1.67-.09,1.64,1.64,0,0,1,.73,1.75c-.53,2-1.07,4-1.62,6l-2,7.52s0,.1,0,.21c.63-.44,1.19-.83,1.75-1.25,2.09-1.49,4.18-3,6.26-4.48a1.45,1.45,0,0,1,1.7-.16,1.52,1.52,0,0,1,.25,2.55ZM16,3.13a12.88,12.88,0,0,0,0,25.76A12.88,12.88,0,0,0,16,3.13ZM26.14,17.94q-5.76,4.15-11.55,8.25a1.35,1.35,0,0,1-1.67,0,1.61,1.61,0,0,1-.66-1.78c.5-1.91,1-3.82,1.54-5.73l2.1-7.75L16,10.7l-4.82,3.44c-1.1.78-2.2,1.56-3.29,2.35a1.63,1.63,0,0,1-1,.36,1.42,1.42,0,0,1-.74-.22A1.59,1.59,0,0,1,5.35,15,1.39,1.39,0,0,1,6,14l9.21-6.57,2.22-1.58a1.36,1.36,0,0,1,1.67-.09,1.64,1.64,0,0,1,.73,1.75c-.53,2-1.07,4-1.62,6l-2,7.52s0,.1,0,.21c.63-.44,1.19-.83,1.75-1.25,2.09-1.49,4.18-3,6.26-4.48a1.45,1.45,0,0,1,1.7-.16,1.52,1.52,0,0,1,.25,2.55ZM16,3.13a12.88,12.88,0,0,0,0,25.76A12.88,12.88,0,0,0,16,3.13ZM26.14,17.94q-5.76,4.15-11.55,8.25a1.35,1.35,0,0,1-1.67,0,1.61,1.61,0,0,1-.66-1.78c.5-1.91,1-3.82,1.54-5.73l2.1-7.75L16,10.7l-4.82,3.44c-1.1.78-2.2,1.56-3.29,2.35a1.63,1.63,0,0,1-1,.36,1.42,1.42,0,0,1-.74-.22A1.59,1.59,0,0,1,5.35,15,1.39,1.39,0,0,1,6,14l9.21-6.57,2.22-1.58a1.36,1.36,0,0,1,1.67-.09,1.64,1.64,0,0,1,.73,1.75c-.53,2-1.07,4-1.62,6l-2,7.52s0,.1,0,.21c.63-.44,1.19-.83,1.75-1.25,2.09-1.49,4.18-3,6.26-4.48a1.45,1.45,0,0,1,1.7-.16,1.52,1.52,0,0,1,.25,2.55ZM16,3.13a12.88,12.88,0,0,0,0,25.76A12.88,12.88,0,0,0,16,3.13ZM26.14,17.94q-5.76,4.15-11.55,8.25a1.35,1.35,0,0,1-1.67,0,1.61,1.61,0,0,1-.66-1.78c.5-1.91,1-3.82,1.54-5.73l2.1-7.75L16,10.7l-4.82,3.44c-1.1.78-2.2,1.56-3.29,2.35a1.63,1.63,0,0,1-1,.36,1.42,1.42,0,0,1-.74-.22A1.59,1.59,0,0,1,5.35,15,1.39,1.39,0,0,1,6,14l9.21-6.57,2.22-1.58a1.36,1.36,0,0,1,1.67-.09,1.64,1.64,0,0,1,.73,1.75c-.53,2-1.07,4-1.62,6l-2,7.52s0,.1,0,.21c.63-.44,1.19-.83,1.75-1.25,2.09-1.49,4.18-3,6.26-4.48a1.45,1.45,0,0,1,1.7-.16,1.52,1.52,0,0,1,.25,2.55ZM16,3.13a12.88,12.88,0,0,0,0,25.76A12.88,12.88,0,0,0,16,3.13ZM26.14,17.94q-5.76,4.15-11.55,8.25a1.35,1.35,0,0,1-1.67,0,1.61,1.61,0,0,1-.66-1.78c.5-1.91,1-3.82,1.54-5.73l2.1-7.75L16,10.7l-4.82,3.44c-1.1.78-2.2,1.56-3.29,2.35a1.63,1.63,0,0,1-1,.36,1.42,1.42,0,0,1-.74-.22A1.59,1.59,0,0,1,5.35,15,1.39,1.39,0,0,1,6,14l9.21-6.57,2.22-1.58a1.36,1.36,0,0,1,1.67-.09,1.64,1.64,0,0,1,.73,1.75c-.53,2-1.07,4-1.62,6l-2,7.52s0,.1,0,.21c.63-.44,1.19-.83,1.75-1.25,2.09-1.49,4.18-3,6.26-4.48a1.45,1.45,0,0,1,1.7-.16,1.52,1.52,0,0,1,.25,2.55ZM16,3.13a12.88,12.88,0,0,0,0,25.76A12.88,12.88,0,0,0,16,3.13ZM26.14,17.94q-5.76,4.15-11.55,8.25a1.35,1.35,0,0,1-1.67,0,1.61,1.61,0,0,1-.66-1.78c.5-1.91,1-3.82,1.54-5.73l2.1-7.75L16,10.7l-4.82,3.44c-1.1.78-2.2,1.56-3.29,2.35a1.63,1.63,0,0,1-1,.36,1.42,1.42,0,0,1-.74-.22A1.59,1.59,0,0,1,5.35,15,1.39,1.39,0,0,1,6,14l9.21-6.57,2.22-1.58a1.36,1.36,0,0,1,1.67-.09,1.64,1.64,0,0,1,.73,1.75c-.53,2-1.07,4-1.62,6l-2,7.52s0,.1,0,.21c.63-.44,1.19-.83,1.75-1.25,2.09-1.49,4.18-3,6.26-4.48a1.45,1.45,0,0,1,1.7-.16,1.52,1.52,0,0,1,.25,2.55ZM16,0A16,16,0,1,0,32,16,16,16,0,0,0,16,0Zm.06,30.05H16a13.89,13.89,0,1,1,.09,0ZM16,3.13a12.88,12.88,0,0,0,0,25.76A12.88,12.88,0,0,0,16,3.13ZM26.14,17.94q-5.76,4.15-11.55,8.25a1.35,1.35,0,0,1-1.67,0,1.61,1.61,0,0,1-.66-1.78c.5-1.91,1-3.82,1.54-5.73l2.1-7.75L16,10.7l-4.82,3.44c-1.1.78-2.2,1.56-3.29,2.35a1.63,1.63,0,0,1-1,.36,1.42,1.42,0,0,1-.74-.22A1.59,1.59,0,0,1,5.35,15,1.39,1.39,0,0,1,6,14l9.21-6.57,2.22-1.58a1.36,1.36,0,0,1,1.67-.09,1.64,1.64,0,0,1,.73,1.75c-.53,2-1.07,4-1.62,6l-2,7.52s0,.1,0,.21c.63-.44,1.19-.83,1.75-1.25,2.09-1.49,4.18-3,6.26-4.48a1.45,1.45,0,0,1,1.7-.16,1.52,1.52,0,0,1,.25,2.55ZM16,3.13a12.88,12.88,0,0,0,0,25.76A12.88,12.88,0,0,0,16,3.13ZM26.14,17.94q-5.76,4.15-11.55,8.25a1.35,1.35,0,0,1-1.67,0,1.61,1.61,0,0,1-.66-1.78c.5-1.91,1-3.82,1.54-5.73l2.1-7.75L16,10.7l-4.82,3.44c-1.1.78-2.2,1.56-3.29,2.35a1.63,1.63,0,0,1-1,.36,1.42,1.42,0,0,1-.74-.22A1.59,1.59,0,0,1,5.35,15,1.39,1.39,0,0,1,6,14l9.21-6.57,2.22-1.58a1.36,1.36,0,0,1,1.67-.09,1.64,1.64,0,0,1,.73,1.75c-.53,2-1.07,4-1.62,6l-2,7.52s0,.1,0,.21c.63-.44,1.19-.83,1.75-1.25,2.09-1.49,4.18-3,6.26-4.48a1.45,1.45,0,0,1,1.7-.16,1.52,1.52,0,0,1,.25,2.55ZM16,3.13a12.88,12.88,0,0,0,0,25.76A12.88,12.88,0,0,0,16,3.13ZM26.14,17.94q-5.76,4.15-11.55,8.25a1.35,1.35,0,0,1-1.67,0,1.61,1.61,0,0,1-.66-1.78c.5-1.91,1-3.82,1.54-5.73l2.1-7.75L16,10.7l-4.82,3.44c-1.1.78-2.2,1.56-3.29,2.35a1.63,1.63,0,0,1-1,.36,1.42,1.42,0,0,1-.74-.22A1.59,1.59,0,0,1,5.35,15,1.39,1.39,0,0,1,6,14l9.21-6.57,2.22-1.58a1.36,1.36,0,0,1,1.67-.09,1.64,1.64,0,0,1,.73,1.75c-.53,2-1.07,4-1.62,6l-2,7.52s0,.1,0,.21c.63-.44,1.19-.83,1.75-1.25,2.09-1.49,4.18-3,6.26-4.48a1.45,1.45,0,0,1,1.7-.16,1.52,1.52,0,0,1,.25,2.55ZM16,3.13a12.88,12.88,0,0,0,0,25.76A12.88,12.88,0,0,0,16,3.13ZM26.14,17.94q-5.76,4.15-11.55,8.25a1.35,1.35,0,0,1-1.67,0,1.61,1.61,0,0,1-.66-1.78c.5-1.91,1-3.82,1.54-5.73l2.1-7.75L16,10.7l-4.82,3.44c-1.1.78-2.2,1.56-3.29,2.35a1.63,1.63,0,0,1-1,.36,1.42,1.42,0,0,1-.74-.22A1.59,1.59,0,0,1,5.35,15,1.39,1.39,0,0,1,6,14l9.21-6.57,2.22-1.58a1.36,1.36,0,0,1,1.67-.09,1.64,1.64,0,0,1,.73,1.75c-.53,2-1.07,4-1.62,6l-2,7.52s0,.1,0,.21c.63-.44,1.19-.83,1.75-1.25,2.09-1.49,4.18-3,6.26-4.48a1.45,1.45,0,0,1,1.7-.16,1.52,1.52,0,0,1,.25,2.55ZM16,3.13a12.88,12.88,0,0,0,0,25.76A12.88,12.88,0,0,0,16,3.13ZM26.14,17.94q-5.76,4.15-11.55,8.25a1.35,1.35,0,0,1-1.67,0,1.61,1.61,0,0,1-.66-1.78c.5-1.91,1-3.82,1.54-5.73l2.1-7.75L16,10.7l-4.82,3.44c-1.1.78-2.2,1.56-3.29,2.35a1.63,1.63,0,0,1-1,.36,1.42,1.42,0,0,1-.74-.22A1.59,1.59,0,0,1,5.35,15,1.39,1.39,0,0,1,6,14l9.21-6.57,2.22-1.58a1.36,1.36,0,0,1,1.67-.09,1.64,1.64,0,0,1,.73,1.75c-.53,2-1.07,4-1.62,6l-2,7.52s0,.1,0,.21c.63-.44,1.19-.83,1.75-1.25,2.09-1.49,4.18-3,6.26-4.48a1.45,1.45,0,0,1,1.7-.16,1.52,1.52,0,0,1,.25,2.55ZM16,3.13a12.88,12.88,0,0,0,0,25.76A12.88,12.88,0,0,0,16,3.13ZM26.14,17.94q-5.76,4.15-11.55,8.25a1.35,1.35,0,0,1-1.67,0,1.61,1.61,0,0,1-.66-1.78c.5-1.91,1-3.82,1.54-5.73l2.1-7.75L16,10.7l-4.82,3.44c-1.1.78-2.2,1.56-3.29,2.35a1.63,1.63,0,0,1-1,.36,1.42,1.42,0,0,1-.74-.22A1.59,1.59,0,0,1,5.35,15,1.39,1.39,0,0,1,6,14l9.21-6.57,2.22-1.58a1.36,1.36,0,0,1,1.67-.09,1.64,1.64,0,0,1,.73,1.75c-.53,2-1.07,4-1.62,6l-2,7.52s0,.1,0,.21c.63-.44,1.19-.83,1.75-1.25,2.09-1.49,4.18-3,6.26-4.48a1.45,1.45,0,0,1,1.7-.16,1.52,1.52,0,0,1,.25,2.55ZM16,3.13a12.88,12.88,0,0,0,0,25.76A12.88,12.88,0,0,0,16,3.13ZM26.14,17.94q-5.76,4.15-11.55,8.25a1.35,1.35,0,0,1-1.67,0,1.61,1.61,0,0,1-.66-1.78c.5-1.91,1-3.82,1.54-5.73l2.1-7.75L16,10.7l-4.82,3.44c-1.1.78-2.2,1.56-3.29,2.35a1.63,1.63,0,0,1-1,.36,1.42,1.42,0,0,1-.74-.22A1.59,1.59,0,0,1,5.35,15,1.39,1.39,0,0,1,6,14l9.21-6.57,2.22-1.58a1.36,1.36,0,0,1,1.67-.09,1.64,1.64,0,0,1,.73,1.75c-.53,2-1.07,4-1.62,6l-2,7.52s0,.1,0,.21c.63-.44,1.19-.83,1.75-1.25,2.09-1.49,4.18-3,6.26-4.48a1.45,1.45,0,0,1,1.7-.16,1.52,1.52,0,0,1,.25,2.55Z"/></g></g></svg>